<?xml version="1.0"?>
<svg width="511.626" height="511.626" xmlns="http://www.w3.org/2000/svg" xmlns:svg="http://www.w3.org/2000/svg">
 <g>
  <title>Layer 1</title>
  <g id="svg_1">
   <g id="svg_2">
    <path fill="#cccccc" id="svg_3" d="m49.105999,178.729004c6.472,4.567001 25.980999,18.130997 58.528004,40.685013c32.548004,22.554001 57.481995,39.919998 74.802994,52.098984c1.903,1.334991 5.945999,4.237 12.130997,8.709991c6.186005,4.476013 11.326004,8.093018 15.416,10.85202c4.093002,2.757996 9.041,5.85199 14.848999,9.277008c5.806015,3.421967 11.279007,5.995972 16.418015,7.699982c5.139999,1.717987 9.897995,2.569 14.274994,2.569l0.287003,0l0.28801,0c4.376984,0 9.136993,-0.85199 14.276978,-2.569c5.137024,-1.70401 10.615021,-4.281006 16.416016,-7.699982c5.803986,-3.429016 10.751984,-6.52002 14.845001,-9.277008c4.092987,-2.759003 9.229004,-6.376007 15.416992,-10.85202c6.18399,-4.47699 10.231995,-7.375 12.13501,-8.709991c17.507996,-12.178986 62.050995,-43.110001 133.61499,-92.789993c13.894012,-9.703003 25.502014,-21.411011 34.826996,-35.116013c9.332001,-13.69899 13.993011,-28.069992 13.993011,-43.104996c0,-12.563995 -4.52301,-23.319 -13.565002,-32.264c-9.040985,-8.946999 -19.748993,-13.417999 -32.117004,-13.417999l-420.264999,0c-14.655001,0 -25.933001,4.948002 -33.832001,14.844002c-7.898,9.897995 -11.847,22.269997 -11.847,37.114998c0,11.990997 5.236,24.985008 15.703,38.974007c10.466001,13.98999 21.603999,24.982986 33.402999,32.975998z"/>
    <path fill="#cccccc" id="svg_4" d="m483.071991,209.274994c-62.424011,42.250992 -109.824005,75.087006 -142.177002,98.501007c-10.848999,7.990997 -19.649994,14.229004 -26.408997,18.698975c-6.759003,4.473022 -15.748016,9.041016 -26.980011,13.702026c-11.227997,4.667999 -21.691986,6.994995 -31.401001,6.994995l-0.290985,0l-0.287003,0c-9.707001,0 -20.177002,-2.326996 -31.404999,-6.994995c-11.227997,-4.661011 -20.223007,-9.229004 -26.980011,-13.702026c-6.75499,-4.469971 -15.55899,-10.707977 -26.406998,-18.698975c-25.696991,-18.84201 -72.994995,-51.680023 -141.895996,-98.501007c-10.85199,-7.227997 -20.463989,-15.513 -28.838989,-24.837997l0,226.684982c0,12.570007 4.471,23.319 13.418,32.265015c8.945001,8.949005 19.700999,13.421997 32.263999,13.421997l420.265999,0c12.559998,0 23.315002,-4.472992 32.260986,-13.421997c8.949005,-8.949005 13.417999,-19.694 13.417999,-32.265015l0,-226.684982c-8.185974,9.132004 -17.699982,17.417007 -28.554993,24.837997z"/>
   </g>
  </g>
  <g id="svg_5"/>
  <g id="svg_6"/>
  <g id="svg_7"/>
  <g id="svg_8"/>
  <g id="svg_9"/>
  <g id="svg_10"/>
  <g id="svg_11"/>
  <g id="svg_12"/>
  <g id="svg_13"/>
  <g id="svg_14"/>
  <g id="svg_15"/>
  <g id="svg_16"/>
  <g id="svg_17"/>
  <g id="svg_18"/>
  <g id="svg_19"/>
 </g>
</svg>